<mxfile host="app.diagrams.net" modified="2023-06-01T18:22:51.144Z" agent="Mozilla/5.0 (Windows NT 10.0; Win64; x64) AppleWebKit/537.36 (KHTML, like Gecko) Chrome/113.0.0.0 Safari/537.36 Edg/113.0.1774.57" etag="gv5hEIuya7qoUgtf03Hu" version="21.3.7" type="github">
  <diagram id="C5RBs43oDa-KdzZeNtuy" name="Page-1">
    <mxGraphModel dx="972" dy="618" grid="0" gridSize="10" guides="1" tooltips="1" connect="1" arrows="1" fold="1" page="1" pageScale="1" pageWidth="827" pageHeight="1169" math="0" shadow="0">
      <root>
        <mxCell id="WIyWlLk6GJQsqaUBKTNV-0" />
        <mxCell id="WIyWlLk6GJQsqaUBKTNV-1" parent="WIyWlLk6GJQsqaUBKTNV-0" />
        <mxCell id="IfHve2J33p-x-s04PEgJ-30" value="" style="edgeStyle=orthogonalEdgeStyle;rounded=0;orthogonalLoop=1;jettySize=auto;html=1;" edge="1" parent="WIyWlLk6GJQsqaUBKTNV-1" source="WIyWlLk6GJQsqaUBKTNV-3" target="IfHve2J33p-x-s04PEgJ-1">
          <mxGeometry relative="1" as="geometry" />
        </mxCell>
        <mxCell id="WIyWlLk6GJQsqaUBKTNV-3" value="开始" style="rounded=1;whiteSpace=wrap;html=1;fontSize=12;glass=0;strokeWidth=1;shadow=0;" parent="WIyWlLk6GJQsqaUBKTNV-1" vertex="1">
          <mxGeometry x="160" y="80" width="120" height="40" as="geometry" />
        </mxCell>
        <mxCell id="WIyWlLk6GJQsqaUBKTNV-6" value="关键信息是否为空" style="rhombus;whiteSpace=wrap;html=1;shadow=0;fontFamily=Helvetica;fontSize=12;align=center;strokeWidth=1;spacing=6;spacingTop=-4;" parent="WIyWlLk6GJQsqaUBKTNV-1" vertex="1">
          <mxGeometry x="165" y="240" width="110" height="70" as="geometry" />
        </mxCell>
        <mxCell id="IfHve2J33p-x-s04PEgJ-20" value="" style="edgeStyle=orthogonalEdgeStyle;rounded=0;orthogonalLoop=1;jettySize=auto;html=1;" edge="1" parent="WIyWlLk6GJQsqaUBKTNV-1" source="WIyWlLk6GJQsqaUBKTNV-10" target="IfHve2J33p-x-s04PEgJ-5">
          <mxGeometry relative="1" as="geometry" />
        </mxCell>
        <mxCell id="WIyWlLk6GJQsqaUBKTNV-10" value="管理员审批" style="rhombus;whiteSpace=wrap;html=1;shadow=0;fontFamily=Helvetica;fontSize=12;align=center;strokeWidth=1;spacing=6;spacingTop=-4;" parent="WIyWlLk6GJQsqaUBKTNV-1" vertex="1">
          <mxGeometry x="160" y="340" width="120" height="80" as="geometry" />
        </mxCell>
        <mxCell id="IfHve2J33p-x-s04PEgJ-1" value="用户填写并上传房屋信息" style="rounded=0;whiteSpace=wrap;html=1;" vertex="1" parent="WIyWlLk6GJQsqaUBKTNV-1">
          <mxGeometry x="160" y="150" width="120" height="50" as="geometry" />
        </mxCell>
        <mxCell id="IfHve2J33p-x-s04PEgJ-4" value="结束" style="rounded=1;whiteSpace=wrap;html=1;fontSize=12;glass=0;strokeWidth=1;shadow=0;" vertex="1" parent="WIyWlLk6GJQsqaUBKTNV-1">
          <mxGeometry x="160" y="630" width="120" height="40" as="geometry" />
        </mxCell>
        <mxCell id="IfHve2J33p-x-s04PEgJ-19" value="" style="edgeStyle=orthogonalEdgeStyle;rounded=0;orthogonalLoop=1;jettySize=auto;html=1;" edge="1" parent="WIyWlLk6GJQsqaUBKTNV-1" source="IfHve2J33p-x-s04PEgJ-5" target="IfHve2J33p-x-s04PEgJ-18">
          <mxGeometry relative="1" as="geometry" />
        </mxCell>
        <mxCell id="IfHve2J33p-x-s04PEgJ-5" value="将房屋信息保存至数据库" style="rounded=0;whiteSpace=wrap;html=1;" vertex="1" parent="WIyWlLk6GJQsqaUBKTNV-1">
          <mxGeometry x="160" y="450" width="120" height="50" as="geometry" />
        </mxCell>
        <mxCell id="IfHve2J33p-x-s04PEgJ-10" value="Yes" style="rounded=0;html=1;jettySize=auto;orthogonalLoop=1;fontSize=11;endArrow=block;endFill=0;endSize=8;strokeWidth=1;shadow=0;labelBackgroundColor=none;edgeStyle=orthogonalEdgeStyle;exitX=0;exitY=0.5;exitDx=0;exitDy=0;entryX=0;entryY=0.5;entryDx=0;entryDy=0;" edge="1" parent="WIyWlLk6GJQsqaUBKTNV-1" source="WIyWlLk6GJQsqaUBKTNV-6" target="IfHve2J33p-x-s04PEgJ-1">
          <mxGeometry y="20" relative="1" as="geometry">
            <mxPoint as="offset" />
            <mxPoint x="230" y="320" as="sourcePoint" />
            <mxPoint x="230" y="350" as="targetPoint" />
            <Array as="points">
              <mxPoint x="110" y="275" />
              <mxPoint x="110" y="175" />
            </Array>
          </mxGeometry>
        </mxCell>
        <mxCell id="IfHve2J33p-x-s04PEgJ-14" value="" style="rounded=0;html=1;jettySize=auto;orthogonalLoop=1;fontSize=11;endArrow=block;endFill=0;endSize=8;strokeWidth=1;shadow=0;labelBackgroundColor=none;edgeStyle=orthogonalEdgeStyle;exitX=1;exitY=0.5;exitDx=0;exitDy=0;entryX=1;entryY=0.5;entryDx=0;entryDy=0;" edge="1" parent="WIyWlLk6GJQsqaUBKTNV-1" source="WIyWlLk6GJQsqaUBKTNV-10" target="IfHve2J33p-x-s04PEgJ-1">
          <mxGeometry relative="1" as="geometry">
            <mxPoint x="230" y="320" as="sourcePoint" />
            <mxPoint x="230" y="350" as="targetPoint" />
            <Array as="points">
              <mxPoint x="350" y="380" />
              <mxPoint x="350" y="175" />
            </Array>
          </mxGeometry>
        </mxCell>
        <mxCell id="IfHve2J33p-x-s04PEgJ-15" value="No" style="text;strokeColor=none;align=center;fillColor=none;html=1;verticalAlign=middle;whiteSpace=wrap;rounded=0;" vertex="1" parent="WIyWlLk6GJQsqaUBKTNV-1">
          <mxGeometry x="340" y="250" width="60" height="30" as="geometry" />
        </mxCell>
        <mxCell id="IfHve2J33p-x-s04PEgJ-16" value="Yes" style="text;strokeColor=none;align=center;fillColor=none;html=1;verticalAlign=middle;whiteSpace=wrap;rounded=0;" vertex="1" parent="WIyWlLk6GJQsqaUBKTNV-1">
          <mxGeometry x="215" y="420" width="60" height="30" as="geometry" />
        </mxCell>
        <mxCell id="IfHve2J33p-x-s04PEgJ-17" value="No" style="text;strokeColor=none;align=center;fillColor=none;html=1;verticalAlign=middle;whiteSpace=wrap;rounded=0;" vertex="1" parent="WIyWlLk6GJQsqaUBKTNV-1">
          <mxGeometry x="210" y="310" width="60" height="30" as="geometry" />
        </mxCell>
        <mxCell id="IfHve2J33p-x-s04PEgJ-29" value="" style="edgeStyle=orthogonalEdgeStyle;rounded=0;orthogonalLoop=1;jettySize=auto;html=1;" edge="1" parent="WIyWlLk6GJQsqaUBKTNV-1" source="IfHve2J33p-x-s04PEgJ-18" target="IfHve2J33p-x-s04PEgJ-4">
          <mxGeometry relative="1" as="geometry" />
        </mxCell>
        <mxCell id="IfHve2J33p-x-s04PEgJ-18" value="房屋信息页面每次刷新重新读取数据库内容" style="rounded=0;whiteSpace=wrap;html=1;" vertex="1" parent="WIyWlLk6GJQsqaUBKTNV-1">
          <mxGeometry x="160" y="540" width="120" height="50" as="geometry" />
        </mxCell>
        <mxCell id="IfHve2J33p-x-s04PEgJ-27" value="" style="edgeStyle=orthogonalEdgeStyle;rounded=0;orthogonalLoop=1;jettySize=auto;html=1;exitX=0.5;exitY=1;exitDx=0;exitDy=0;" edge="1" parent="WIyWlLk6GJQsqaUBKTNV-1" source="WIyWlLk6GJQsqaUBKTNV-6">
          <mxGeometry relative="1" as="geometry">
            <mxPoint x="230" y="510" as="sourcePoint" />
            <mxPoint x="220" y="340" as="targetPoint" />
          </mxGeometry>
        </mxCell>
        <mxCell id="IfHve2J33p-x-s04PEgJ-28" value="" style="edgeStyle=orthogonalEdgeStyle;rounded=0;orthogonalLoop=1;jettySize=auto;html=1;exitX=0.5;exitY=1;exitDx=0;exitDy=0;entryX=0.5;entryY=0;entryDx=0;entryDy=0;" edge="1" parent="WIyWlLk6GJQsqaUBKTNV-1" source="IfHve2J33p-x-s04PEgJ-1" target="WIyWlLk6GJQsqaUBKTNV-6">
          <mxGeometry relative="1" as="geometry">
            <mxPoint x="100" y="300" as="sourcePoint" />
            <mxPoint x="100" y="330" as="targetPoint" />
          </mxGeometry>
        </mxCell>
        <mxCell id="IfHve2J33p-x-s04PEgJ-49" value="" style="edgeStyle=orthogonalEdgeStyle;rounded=0;orthogonalLoop=1;jettySize=auto;html=1;entryX=0.5;entryY=0;entryDx=0;entryDy=0;" edge="1" parent="WIyWlLk6GJQsqaUBKTNV-1" source="IfHve2J33p-x-s04PEgJ-32" target="IfHve2J33p-x-s04PEgJ-33">
          <mxGeometry relative="1" as="geometry" />
        </mxCell>
        <mxCell id="IfHve2J33p-x-s04PEgJ-32" value="开始" style="rounded=1;whiteSpace=wrap;html=1;fontSize=12;glass=0;strokeWidth=1;shadow=0;" vertex="1" parent="WIyWlLk6GJQsqaUBKTNV-1">
          <mxGeometry x="533.75" y="160" width="97.5" height="40" as="geometry" />
        </mxCell>
        <mxCell id="IfHve2J33p-x-s04PEgJ-52" value="" style="edgeStyle=orthogonalEdgeStyle;rounded=0;orthogonalLoop=1;jettySize=auto;html=1;entryX=0.5;entryY=0;entryDx=0;entryDy=0;" edge="1" parent="WIyWlLk6GJQsqaUBKTNV-1" source="IfHve2J33p-x-s04PEgJ-33" target="IfHve2J33p-x-s04PEgJ-34">
          <mxGeometry relative="1" as="geometry" />
        </mxCell>
        <mxCell id="IfHve2J33p-x-s04PEgJ-33" value="数据库查询房源列表" style="rounded=0;whiteSpace=wrap;html=1;" vertex="1" parent="WIyWlLk6GJQsqaUBKTNV-1">
          <mxGeometry x="535" y="220" width="95" height="40" as="geometry" />
        </mxCell>
        <mxCell id="IfHve2J33p-x-s04PEgJ-53" value="" style="edgeStyle=orthogonalEdgeStyle;rounded=0;orthogonalLoop=1;jettySize=auto;html=1;entryX=0.5;entryY=0;entryDx=0;entryDy=0;" edge="1" parent="WIyWlLk6GJQsqaUBKTNV-1" source="IfHve2J33p-x-s04PEgJ-34" target="IfHve2J33p-x-s04PEgJ-35">
          <mxGeometry relative="1" as="geometry" />
        </mxCell>
        <mxCell id="IfHve2J33p-x-s04PEgJ-34" value="浏览房源列表" style="rounded=0;whiteSpace=wrap;html=1;" vertex="1" parent="WIyWlLk6GJQsqaUBKTNV-1">
          <mxGeometry x="535" y="290" width="95" height="40" as="geometry" />
        </mxCell>
        <mxCell id="IfHve2J33p-x-s04PEgJ-54" value="" style="edgeStyle=orthogonalEdgeStyle;rounded=0;orthogonalLoop=1;jettySize=auto;html=1;entryX=0.5;entryY=0;entryDx=0;entryDy=0;" edge="1" parent="WIyWlLk6GJQsqaUBKTNV-1" source="IfHve2J33p-x-s04PEgJ-35" target="IfHve2J33p-x-s04PEgJ-36">
          <mxGeometry relative="1" as="geometry" />
        </mxCell>
        <mxCell id="IfHve2J33p-x-s04PEgJ-35" value="申请看房" style="rounded=0;whiteSpace=wrap;html=1;" vertex="1" parent="WIyWlLk6GJQsqaUBKTNV-1">
          <mxGeometry x="535" y="370" width="95" height="40" as="geometry" />
        </mxCell>
        <mxCell id="IfHve2J33p-x-s04PEgJ-55" value="" style="edgeStyle=orthogonalEdgeStyle;rounded=0;orthogonalLoop=1;jettySize=auto;html=1;entryX=0.5;entryY=0;entryDx=0;entryDy=0;" edge="1" parent="WIyWlLk6GJQsqaUBKTNV-1" source="IfHve2J33p-x-s04PEgJ-36" target="IfHve2J33p-x-s04PEgJ-37">
          <mxGeometry relative="1" as="geometry" />
        </mxCell>
        <mxCell id="IfHve2J33p-x-s04PEgJ-36" value="跳转至房屋详细信息" style="rounded=0;whiteSpace=wrap;html=1;" vertex="1" parent="WIyWlLk6GJQsqaUBKTNV-1">
          <mxGeometry x="535" y="440" width="95" height="40" as="geometry" />
        </mxCell>
        <mxCell id="IfHve2J33p-x-s04PEgJ-56" value="" style="edgeStyle=orthogonalEdgeStyle;rounded=0;orthogonalLoop=1;jettySize=auto;html=1;entryX=0.5;entryY=0;entryDx=0;entryDy=0;" edge="1" parent="WIyWlLk6GJQsqaUBKTNV-1" source="IfHve2J33p-x-s04PEgJ-37" target="IfHve2J33p-x-s04PEgJ-38">
          <mxGeometry relative="1" as="geometry" />
        </mxCell>
        <mxCell id="IfHve2J33p-x-s04PEgJ-37" value="是否满意" style="rhombus;whiteSpace=wrap;html=1;shadow=0;fontFamily=Helvetica;fontSize=12;align=center;strokeWidth=1;spacing=6;spacingTop=-4;" vertex="1" parent="WIyWlLk6GJQsqaUBKTNV-1">
          <mxGeometry x="537.5" y="500" width="90" height="65" as="geometry" />
        </mxCell>
        <mxCell id="IfHve2J33p-x-s04PEgJ-58" value="" style="edgeStyle=orthogonalEdgeStyle;rounded=0;orthogonalLoop=1;jettySize=auto;html=1;entryX=0.425;entryY=-0.036;entryDx=0;entryDy=0;entryPerimeter=0;" edge="1" parent="WIyWlLk6GJQsqaUBKTNV-1" source="IfHve2J33p-x-s04PEgJ-38" target="IfHve2J33p-x-s04PEgJ-39">
          <mxGeometry relative="1" as="geometry" />
        </mxCell>
        <mxCell id="IfHve2J33p-x-s04PEgJ-61" value="" style="edgeStyle=orthogonalEdgeStyle;rounded=0;orthogonalLoop=1;jettySize=auto;html=1;" edge="1" parent="WIyWlLk6GJQsqaUBKTNV-1" source="IfHve2J33p-x-s04PEgJ-38" target="IfHve2J33p-x-s04PEgJ-41">
          <mxGeometry relative="1" as="geometry" />
        </mxCell>
        <mxCell id="IfHve2J33p-x-s04PEgJ-38" value="是否线下看房" style="rhombus;whiteSpace=wrap;html=1;shadow=0;fontFamily=Helvetica;fontSize=12;align=center;strokeWidth=1;spacing=6;spacingTop=-4;" vertex="1" parent="WIyWlLk6GJQsqaUBKTNV-1">
          <mxGeometry x="537.5" y="585" width="90" height="65" as="geometry" />
        </mxCell>
        <mxCell id="IfHve2J33p-x-s04PEgJ-59" value="" style="edgeStyle=orthogonalEdgeStyle;rounded=0;orthogonalLoop=1;jettySize=auto;html=1;" edge="1" parent="WIyWlLk6GJQsqaUBKTNV-1" source="IfHve2J33p-x-s04PEgJ-39" target="IfHve2J33p-x-s04PEgJ-40">
          <mxGeometry relative="1" as="geometry" />
        </mxCell>
        <mxCell id="IfHve2J33p-x-s04PEgJ-39" value="线下看房" style="rounded=0;whiteSpace=wrap;html=1;" vertex="1" parent="WIyWlLk6GJQsqaUBKTNV-1">
          <mxGeometry x="542.5" y="680" width="95" height="40" as="geometry" />
        </mxCell>
        <mxCell id="IfHve2J33p-x-s04PEgJ-40" value="是否满意" style="rhombus;whiteSpace=wrap;html=1;shadow=0;fontFamily=Helvetica;fontSize=12;align=center;strokeWidth=1;spacing=6;spacingTop=-4;" vertex="1" parent="WIyWlLk6GJQsqaUBKTNV-1">
          <mxGeometry x="545" y="750" width="90" height="65" as="geometry" />
        </mxCell>
        <mxCell id="IfHve2J33p-x-s04PEgJ-62" value="" style="edgeStyle=orthogonalEdgeStyle;rounded=0;orthogonalLoop=1;jettySize=auto;html=1;entryX=0.5;entryY=1;entryDx=0;entryDy=0;" edge="1" parent="WIyWlLk6GJQsqaUBKTNV-1" source="IfHve2J33p-x-s04PEgJ-41" target="IfHve2J33p-x-s04PEgJ-67">
          <mxGeometry relative="1" as="geometry">
            <mxPoint x="757.5" y="492.5" as="targetPoint" />
          </mxGeometry>
        </mxCell>
        <mxCell id="IfHve2J33p-x-s04PEgJ-41" value="填写在线合同并生成电子文档存储" style="rounded=0;whiteSpace=wrap;html=1;" vertex="1" parent="WIyWlLk6GJQsqaUBKTNV-1">
          <mxGeometry x="710" y="597.5" width="95" height="40" as="geometry" />
        </mxCell>
        <mxCell id="IfHve2J33p-x-s04PEgJ-63" value="" style="edgeStyle=orthogonalEdgeStyle;rounded=0;orthogonalLoop=1;jettySize=auto;html=1;exitX=0.5;exitY=0;exitDx=0;exitDy=0;" edge="1" parent="WIyWlLk6GJQsqaUBKTNV-1" source="IfHve2J33p-x-s04PEgJ-67" target="IfHve2J33p-x-s04PEgJ-43">
          <mxGeometry relative="1" as="geometry">
            <mxPoint x="757.5" y="427.5" as="sourcePoint" />
          </mxGeometry>
        </mxCell>
        <mxCell id="IfHve2J33p-x-s04PEgJ-43" value="上传数据库缴租情况" style="rounded=0;whiteSpace=wrap;html=1;" vertex="1" parent="WIyWlLk6GJQsqaUBKTNV-1">
          <mxGeometry x="710" y="350" width="95" height="40" as="geometry" />
        </mxCell>
        <mxCell id="IfHve2J33p-x-s04PEgJ-60" value="" style="edgeStyle=orthogonalEdgeStyle;rounded=0;orthogonalLoop=1;jettySize=auto;html=1;exitX=1;exitY=0.5;exitDx=0;exitDy=0;entryX=0.5;entryY=1;entryDx=0;entryDy=0;" edge="1" parent="WIyWlLk6GJQsqaUBKTNV-1" source="IfHve2J33p-x-s04PEgJ-40" target="IfHve2J33p-x-s04PEgJ-41">
          <mxGeometry relative="1" as="geometry">
            <mxPoint x="600" y="730" as="sourcePoint" />
            <mxPoint x="600" y="760" as="targetPoint" />
          </mxGeometry>
        </mxCell>
        <mxCell id="IfHve2J33p-x-s04PEgJ-64" value="" style="edgeStyle=orthogonalEdgeStyle;rounded=0;orthogonalLoop=1;jettySize=auto;html=1;exitX=1;exitY=0.5;exitDx=0;exitDy=0;entryX=1;entryY=0.5;entryDx=0;entryDy=0;" edge="1" parent="WIyWlLk6GJQsqaUBKTNV-1" source="IfHve2J33p-x-s04PEgJ-37" target="IfHve2J33p-x-s04PEgJ-33">
          <mxGeometry relative="1" as="geometry">
            <mxPoint x="638" y="628" as="sourcePoint" />
            <mxPoint x="695" y="628" as="targetPoint" />
            <Array as="points">
              <mxPoint x="670" y="532" />
              <mxPoint x="670" y="240" />
            </Array>
          </mxGeometry>
        </mxCell>
        <mxCell id="IfHve2J33p-x-s04PEgJ-65" value="" style="edgeStyle=orthogonalEdgeStyle;rounded=0;orthogonalLoop=1;jettySize=auto;html=1;exitX=0;exitY=0.5;exitDx=0;exitDy=0;entryX=0;entryY=0.5;entryDx=0;entryDy=0;" edge="1" parent="WIyWlLk6GJQsqaUBKTNV-1" source="IfHve2J33p-x-s04PEgJ-40" target="IfHve2J33p-x-s04PEgJ-33">
          <mxGeometry relative="1" as="geometry">
            <mxPoint x="645" y="793" as="sourcePoint" />
            <mxPoint x="742" y="648" as="targetPoint" />
            <Array as="points">
              <mxPoint x="430" y="782" />
              <mxPoint x="430" y="240" />
            </Array>
          </mxGeometry>
        </mxCell>
        <mxCell id="IfHve2J33p-x-s04PEgJ-67" value="支付租金" style="rounded=0;whiteSpace=wrap;html=1;" vertex="1" parent="WIyWlLk6GJQsqaUBKTNV-1">
          <mxGeometry x="710" y="440" width="95" height="40" as="geometry" />
        </mxCell>
        <mxCell id="IfHve2J33p-x-s04PEgJ-68" value="满意" style="text;strokeColor=none;align=center;fillColor=none;html=1;verticalAlign=middle;whiteSpace=wrap;rounded=0;" vertex="1" parent="WIyWlLk6GJQsqaUBKTNV-1">
          <mxGeometry x="670" y="750" width="60" height="30" as="geometry" />
        </mxCell>
        <mxCell id="IfHve2J33p-x-s04PEgJ-69" value="满意" style="text;strokeColor=none;align=center;fillColor=none;html=1;verticalAlign=middle;whiteSpace=wrap;rounded=0;" vertex="1" parent="WIyWlLk6GJQsqaUBKTNV-1">
          <mxGeometry x="577.5" y="560" width="60" height="30" as="geometry" />
        </mxCell>
        <mxCell id="IfHve2J33p-x-s04PEgJ-70" value="不满意" style="text;strokeColor=none;align=center;fillColor=none;html=1;verticalAlign=middle;whiteSpace=wrap;rounded=0;" vertex="1" parent="WIyWlLk6GJQsqaUBKTNV-1">
          <mxGeometry x="460" y="750" width="60" height="30" as="geometry" />
        </mxCell>
        <mxCell id="IfHve2J33p-x-s04PEgJ-71" value="不满意" style="text;strokeColor=none;align=center;fillColor=none;html=1;verticalAlign=middle;whiteSpace=wrap;rounded=0;" vertex="1" parent="WIyWlLk6GJQsqaUBKTNV-1">
          <mxGeometry x="627.5" y="370" width="60" height="30" as="geometry" />
        </mxCell>
        <mxCell id="IfHve2J33p-x-s04PEgJ-72" value="否" style="text;strokeColor=none;align=center;fillColor=none;html=1;verticalAlign=middle;whiteSpace=wrap;rounded=0;" vertex="1" parent="WIyWlLk6GJQsqaUBKTNV-1">
          <mxGeometry x="635" y="590" width="60" height="30" as="geometry" />
        </mxCell>
        <mxCell id="IfHve2J33p-x-s04PEgJ-73" value="是" style="text;strokeColor=none;align=center;fillColor=none;html=1;verticalAlign=middle;whiteSpace=wrap;rounded=0;" vertex="1" parent="WIyWlLk6GJQsqaUBKTNV-1">
          <mxGeometry x="575" y="640" width="60" height="30" as="geometry" />
        </mxCell>
        <mxCell id="IfHve2J33p-x-s04PEgJ-74" value="" style="edgeStyle=orthogonalEdgeStyle;rounded=0;orthogonalLoop=1;jettySize=auto;html=1;exitX=1;exitY=0.5;exitDx=0;exitDy=0;entryX=1;entryY=0.5;entryDx=0;entryDy=0;" edge="1" parent="WIyWlLk6GJQsqaUBKTNV-1" source="IfHve2J33p-x-s04PEgJ-43" target="IfHve2J33p-x-s04PEgJ-33">
          <mxGeometry relative="1" as="geometry">
            <mxPoint x="750" y="310" as="sourcePoint" />
            <mxPoint x="650" y="240" as="targetPoint" />
          </mxGeometry>
        </mxCell>
        <mxCell id="IfHve2J33p-x-s04PEgJ-84" value="" style="edgeStyle=orthogonalEdgeStyle;rounded=0;orthogonalLoop=1;jettySize=auto;html=1;" edge="1" parent="WIyWlLk6GJQsqaUBKTNV-1" source="IfHve2J33p-x-s04PEgJ-75" target="IfHve2J33p-x-s04PEgJ-76">
          <mxGeometry relative="1" as="geometry" />
        </mxCell>
        <mxCell id="IfHve2J33p-x-s04PEgJ-75" value="开始" style="rounded=1;whiteSpace=wrap;html=1;fontSize=12;glass=0;strokeWidth=1;shadow=0;" vertex="1" parent="WIyWlLk6GJQsqaUBKTNV-1">
          <mxGeometry x="1036" y="52" width="97.5" height="40" as="geometry" />
        </mxCell>
        <mxCell id="IfHve2J33p-x-s04PEgJ-85" value="" style="edgeStyle=orthogonalEdgeStyle;rounded=0;orthogonalLoop=1;jettySize=auto;html=1;" edge="1" parent="WIyWlLk6GJQsqaUBKTNV-1" source="IfHve2J33p-x-s04PEgJ-76" target="IfHve2J33p-x-s04PEgJ-77">
          <mxGeometry relative="1" as="geometry" />
        </mxCell>
        <mxCell id="IfHve2J33p-x-s04PEgJ-76" value="选择角色（用户/管理员）" style="rounded=0;whiteSpace=wrap;html=1;" vertex="1" parent="WIyWlLk6GJQsqaUBKTNV-1">
          <mxGeometry x="1037.25" y="123" width="95" height="40" as="geometry" />
        </mxCell>
        <mxCell id="IfHve2J33p-x-s04PEgJ-86" value="" style="edgeStyle=orthogonalEdgeStyle;rounded=0;orthogonalLoop=1;jettySize=auto;html=1;" edge="1" parent="WIyWlLk6GJQsqaUBKTNV-1" source="IfHve2J33p-x-s04PEgJ-77" target="IfHve2J33p-x-s04PEgJ-82">
          <mxGeometry relative="1" as="geometry" />
        </mxCell>
        <mxCell id="IfHve2J33p-x-s04PEgJ-77" value="输入用户名密码" style="rounded=0;whiteSpace=wrap;html=1;" vertex="1" parent="WIyWlLk6GJQsqaUBKTNV-1">
          <mxGeometry x="1038.5" y="192" width="95" height="40" as="geometry" />
        </mxCell>
        <mxCell id="IfHve2J33p-x-s04PEgJ-78" value="成功登陆后台界面" style="rounded=0;whiteSpace=wrap;html=1;" vertex="1" parent="WIyWlLk6GJQsqaUBKTNV-1">
          <mxGeometry x="954" y="450" width="95" height="40" as="geometry" />
        </mxCell>
        <mxCell id="IfHve2J33p-x-s04PEgJ-79" value="成功登陆前台界面" style="rounded=0;whiteSpace=wrap;html=1;" vertex="1" parent="WIyWlLk6GJQsqaUBKTNV-1">
          <mxGeometry x="1157" y="450" width="95" height="40" as="geometry" />
        </mxCell>
        <mxCell id="IfHve2J33p-x-s04PEgJ-80" value="结束" style="rounded=1;whiteSpace=wrap;html=1;fontSize=12;glass=0;strokeWidth=1;shadow=0;" vertex="1" parent="WIyWlLk6GJQsqaUBKTNV-1">
          <mxGeometry x="1063" y="534" width="97.5" height="40" as="geometry" />
        </mxCell>
        <mxCell id="IfHve2J33p-x-s04PEgJ-81" value="错误提示" style="rounded=0;whiteSpace=wrap;html=1;" vertex="1" parent="WIyWlLk6GJQsqaUBKTNV-1">
          <mxGeometry x="1193" y="268" width="95" height="40" as="geometry" />
        </mxCell>
        <mxCell id="IfHve2J33p-x-s04PEgJ-87" value="" style="edgeStyle=orthogonalEdgeStyle;rounded=0;orthogonalLoop=1;jettySize=auto;html=1;" edge="1" parent="WIyWlLk6GJQsqaUBKTNV-1" source="IfHve2J33p-x-s04PEgJ-82" target="IfHve2J33p-x-s04PEgJ-81">
          <mxGeometry relative="1" as="geometry" />
        </mxCell>
        <mxCell id="IfHve2J33p-x-s04PEgJ-91" value="" style="edgeStyle=orthogonalEdgeStyle;rounded=0;orthogonalLoop=1;jettySize=auto;html=1;" edge="1" parent="WIyWlLk6GJQsqaUBKTNV-1" source="IfHve2J33p-x-s04PEgJ-82" target="IfHve2J33p-x-s04PEgJ-83">
          <mxGeometry relative="1" as="geometry" />
        </mxCell>
        <mxCell id="IfHve2J33p-x-s04PEgJ-82" value="用户名和密码是否正确" style="rhombus;whiteSpace=wrap;html=1;shadow=0;fontFamily=Helvetica;fontSize=12;align=center;strokeWidth=1;spacing=6;spacingTop=-4;" vertex="1" parent="WIyWlLk6GJQsqaUBKTNV-1">
          <mxGeometry x="1011.25" y="257" width="149.5" height="62" as="geometry" />
        </mxCell>
        <mxCell id="IfHve2J33p-x-s04PEgJ-83" value="管理员？" style="rhombus;whiteSpace=wrap;html=1;shadow=0;fontFamily=Helvetica;fontSize=12;align=center;strokeWidth=1;spacing=6;spacingTop=-4;" vertex="1" parent="WIyWlLk6GJQsqaUBKTNV-1">
          <mxGeometry x="1041" y="340" width="90" height="65" as="geometry" />
        </mxCell>
        <mxCell id="IfHve2J33p-x-s04PEgJ-88" value="" style="edgeStyle=orthogonalEdgeStyle;rounded=0;orthogonalLoop=1;jettySize=auto;html=1;exitX=0.5;exitY=0;exitDx=0;exitDy=0;entryX=1;entryY=0.5;entryDx=0;entryDy=0;" edge="1" parent="WIyWlLk6GJQsqaUBKTNV-1" source="IfHve2J33p-x-s04PEgJ-81" target="IfHve2J33p-x-s04PEgJ-76">
          <mxGeometry relative="1" as="geometry">
            <mxPoint x="1095" y="173" as="sourcePoint" />
            <mxPoint x="1096" y="202" as="targetPoint" />
          </mxGeometry>
        </mxCell>
        <mxCell id="IfHve2J33p-x-s04PEgJ-89" value="" style="edgeStyle=orthogonalEdgeStyle;rounded=0;orthogonalLoop=1;jettySize=auto;html=1;exitX=0;exitY=0.5;exitDx=0;exitDy=0;entryX=0.5;entryY=0;entryDx=0;entryDy=0;" edge="1" parent="WIyWlLk6GJQsqaUBKTNV-1" source="IfHve2J33p-x-s04PEgJ-83" target="IfHve2J33p-x-s04PEgJ-78">
          <mxGeometry relative="1" as="geometry">
            <mxPoint x="1171" y="298" as="sourcePoint" />
            <mxPoint x="1203" y="298" as="targetPoint" />
          </mxGeometry>
        </mxCell>
        <mxCell id="IfHve2J33p-x-s04PEgJ-90" value="" style="edgeStyle=orthogonalEdgeStyle;rounded=0;orthogonalLoop=1;jettySize=auto;html=1;exitX=1;exitY=0.5;exitDx=0;exitDy=0;entryX=0.5;entryY=0;entryDx=0;entryDy=0;" edge="1" parent="WIyWlLk6GJQsqaUBKTNV-1" source="IfHve2J33p-x-s04PEgJ-83" target="IfHve2J33p-x-s04PEgJ-79">
          <mxGeometry relative="1" as="geometry">
            <mxPoint x="1181" y="308" as="sourcePoint" />
            <mxPoint x="1213" y="308" as="targetPoint" />
          </mxGeometry>
        </mxCell>
        <mxCell id="IfHve2J33p-x-s04PEgJ-92" value="" style="edgeStyle=orthogonalEdgeStyle;rounded=0;orthogonalLoop=1;jettySize=auto;html=1;entryX=0.5;entryY=0;entryDx=0;entryDy=0;exitX=0.5;exitY=1;exitDx=0;exitDy=0;" edge="1" parent="WIyWlLk6GJQsqaUBKTNV-1" source="IfHve2J33p-x-s04PEgJ-78" target="IfHve2J33p-x-s04PEgJ-80">
          <mxGeometry relative="1" as="geometry">
            <mxPoint x="1051" y="387" as="sourcePoint" />
            <mxPoint x="1012" y="460" as="targetPoint" />
          </mxGeometry>
        </mxCell>
        <mxCell id="IfHve2J33p-x-s04PEgJ-94" value="" style="edgeStyle=orthogonalEdgeStyle;rounded=0;orthogonalLoop=1;jettySize=auto;html=1;entryX=0.5;entryY=0;entryDx=0;entryDy=0;exitX=0.5;exitY=1;exitDx=0;exitDy=0;" edge="1" parent="WIyWlLk6GJQsqaUBKTNV-1" source="IfHve2J33p-x-s04PEgJ-79" target="IfHve2J33p-x-s04PEgJ-80">
          <mxGeometry relative="1" as="geometry">
            <mxPoint x="1012" y="500" as="sourcePoint" />
            <mxPoint x="1122" y="544" as="targetPoint" />
          </mxGeometry>
        </mxCell>
        <mxCell id="IfHve2J33p-x-s04PEgJ-95" value="是" style="text;strokeColor=none;align=center;fillColor=none;html=1;verticalAlign=middle;whiteSpace=wrap;rounded=0;" vertex="1" parent="WIyWlLk6GJQsqaUBKTNV-1">
          <mxGeometry x="1056" y="440" width="60" height="30" as="geometry" />
        </mxCell>
      </root>
    </mxGraphModel>
  </diagram>
</mxfile>
